<?xml version="1.0" ?><!DOCTYPE svg  PUBLIC '-//W3C//DTD SVG 1.1//EN'  'http://www.w3.org/Graphics/SVG/1.1/DTD/svg11.dtd'><svg height="48px" id="Layer_1" style="enable-background:new 0 0 48 48;" version="1.1" viewBox="0 0 48 48" width="48px" xml:space="preserve" xmlns="http://www.w3.org/2000/svg" xmlns:xlink="http://www.w3.org/1999/xlink"><polyline points="18.79,18.81 34.851,18.81 34.851,33 12.63,33   12.63,21.83 " style="fill:none;stroke:#231F20;stroke-miterlimit:10;"/><g><polygon points="34.841,13.62 34.851,13.63 34.851,16.99 34.841,17    17.96,17 17.944,16.992 15.188,13.628 15.19,13.62  " style="fill:none;stroke:#231F20;stroke-miterlimit:10;"/></g><line style="fill:none;stroke:#231F20;stroke-miterlimit:10;" x1="12.63" x2="34.445" y1="21.938" y2="21.938"/><line style="fill:none;stroke:#231F20;stroke-miterlimit:10;" x1="32.511" x2="29.258" y1="18.81" y2="22.062"/><line style="fill:none;stroke:#231F20;stroke-miterlimit:10;" x1="32.511" x2="29.258" y1="18.81" y2="22.062"/><line style="fill:none;stroke:#231F20;stroke-miterlimit:10;" x1="32.511" x2="29.258" y1="18.81" y2="22.062"/><line style="fill:none;stroke:#231F20;stroke-miterlimit:10;" x1="29.042" x2="25.789" y1="18.81" y2="22.062"/><line style="fill:none;stroke:#231F20;stroke-miterlimit:10;" x1="25.789" x2="22.536" y1="18.81" y2="22.062"/><line style="fill:none;stroke:#231F20;stroke-miterlimit:10;" x1="22.305" x2="19.052" y1="18.81" y2="22.062"/><line style="fill:none;stroke:#231F20;stroke-miterlimit:10;" x1="32.789" x2="29.536" y1="16.938" y2="13.686"/><line style="fill:none;stroke:#231F20;stroke-miterlimit:10;" x1="29.32" x2="26.067" y1="16.938" y2="13.686"/><line style="fill:none;stroke:#231F20;stroke-miterlimit:10;" x1="26.067" x2="22.814" y1="16.938" y2="13.686"/><line style="fill:none;stroke:#231F20;stroke-miterlimit:10;" x1="22.583" x2="19.33" y1="16.938" y2="13.686"/><line style="fill:none;stroke:#231F20;stroke-miterlimit:10;" x1="14.258" x2="32.07" y1="24.562" y2="24.562"/><line style="fill:none;stroke:#231F20;stroke-miterlimit:10;" x1="14.258" x2="19.82" y1="27.062" y2="27.062"/><line style="fill:none;stroke:#231F20;stroke-miterlimit:10;" x1="14.258" x2="19.82" y1="29.688" y2="29.688"/><line style="fill:none;stroke:#231F20;stroke-miterlimit:10;" x1="15.987" x2="12.63" y1="13.623" y2="13.623"/><line style="fill:none;stroke:#231F20;stroke-miterlimit:10;" x1="12.63" x2="12.63" y1="22.688" y2="13.125"/><line style="fill:none;stroke:#231F20;stroke-miterlimit:10;" x1="19.052" x2="12.63" y1="18.81" y2="18.81"/><line style="fill:none;stroke:#231F20;stroke-miterlimit:10;" x1="17.95" x2="16.14" y1="17" y2="18.81"/><line style="fill:none;stroke:#231F20;stroke-miterlimit:10;" x1="19.094" x2="15.841" y1="18.81" y2="22.062"/><circle cx="14.664" cy="16.344" r="0.75" style="fill:#231F20;"/></svg>